<?xml version="1.0" encoding="UTF-8" standalone="no"?>
<!DOCTYPE svg PUBLIC "-//W3C//DTD SVG 1.1//EN"
 "http://www.w3.org/Graphics/SVG/1.1/DTD/svg11.dtd">
<!-- Generated by graphviz version 13.1.2 (20250808.2320)
 -->
<!-- Pages: 1 -->
<svg width="303pt" height="98pt"
 viewBox="0.00 0.00 303.00 98.00" xmlns="http://www.w3.org/2000/svg" xmlns:xlink="http://www.w3.org/1999/xlink">
<g id="graph0" class="graph" transform="scale(1 1) rotate(0) translate(4 94)">
<polygon fill="white" stroke="none" points="-4,4 -4,-94 299.07,-94 299.07,4 -4,4"/>
<!-- input -->
<g id="node1" class="node">
<title>input</title>
<ellipse fill="none" stroke="black" cx="37.53" cy="-45" rx="37.53" ry="18"/>
<text xml:space="preserve" text-anchor="middle" x="37.53" y="-40.33" font-family="Times,serif" font-size="14.00">input</text>
</g>
<!-- ypp -->
<g id="node2" class="node">
<title>ypp</title>
<ellipse fill="none" stroke="black" cx="140.7" cy="-45" rx="29.64" ry="18"/>
<text xml:space="preserve" text-anchor="middle" x="140.7" y="-40.33" font-family="Times,serif" font-size="14.00">ypp</text>
</g>
<!-- input&#45;&gt;ypp -->
<g id="edge1" class="edge">
<title>input&#45;&gt;ypp</title>
<path fill="none" stroke="black" d="M75.34,-45C83.16,-45 91.45,-45 99.39,-45"/>
<polygon fill="black" stroke="black" points="99.17,-48.5 109.17,-45 99.17,-41.5 99.17,-48.5"/>
</g>
<!-- output -->
<g id="node3" class="node">
<title>output</title>
<ellipse fill="none" stroke="black" cx="250.7" cy="-72" rx="44.37" ry="18"/>
<text xml:space="preserve" text-anchor="middle" x="250.7" y="-67.33" font-family="Times,serif" font-size="14.00">output</text>
</g>
<!-- ypp&#45;&gt;output -->
<g id="edge2" class="edge">
<title>ypp&#45;&gt;output</title>
<path fill="none" stroke="black" d="M168.67,-51.74C178.51,-54.2 189.97,-57.07 201.11,-59.85"/>
<polygon fill="black" stroke="black" points="200.06,-63.2 210.61,-62.23 201.76,-56.41 200.06,-63.2"/>
</g>
<!-- image -->
<g id="node4" class="node">
<title>image</title>
<ellipse fill="none" stroke="black" cx="250.7" cy="-18" rx="41.74" ry="18"/>
<text xml:space="preserve" text-anchor="middle" x="250.7" y="-13.32" font-family="Times,serif" font-size="14.00">image</text>
</g>
<!-- ypp&#45;&gt;image -->
<g id="edge3" class="edge">
<title>ypp&#45;&gt;image</title>
<path fill="none" stroke="black" d="M168.67,-38.26C179.09,-35.65 191.31,-32.6 203.06,-29.66"/>
<polygon fill="black" stroke="black" points="203.79,-33.09 212.64,-27.26 202.09,-26.29 203.79,-33.09"/>
</g>
</g>
</svg>
