<svg font-family="Liberation Sans Bold" font-size="48" height="192" text-anchor="middle" version="1.1" width="1024" xmlns="http://www.w3.org/2000/svg">
<!--
This file is part of luax.

luax is free software: you can redistribute it and/or modify
it under the terms of the GNU General Public License as published by
the Free Software Foundation, either version 3 of the License, or
(at your option) any later version.

luax is distributed in the hope that it will be useful,
but WITHOUT ANY WARRANTY; without even the implied warranty of
MERCHANTABILITY or FITNESS FOR A PARTICULAR PURPOSE.  See the
GNU General Public License for more details.

You should have received a copy of the GNU General Public License
along with luax.  If not, see <https://www.gnu.org/licenses/>.

For further information about luax you can visit
http://cdelord.fr/luax
-->
        <defs>
            <linearGradient id="PlanetGradient" x1="0" x2="0" y1="0" y2="1">
                <stop offset="0%" stop-color="lightgrey"/>
                <stop offset="15%" stop-color="cyan"/>
                <stop offset="30%" stop-color="orange"/>
                <stop offset="70%" stop-color="green"/>
                <stop offset="85%" stop-color="blue"/>
                <stop offset="100%" stop-color="lightgrey"/>
            </linearGradient>
            <linearGradient id="MoonGradient" x1="0" x2="0" y1="0" y2="1">
                <stop offset="0%" stop-color="darkgrey"/>
                <stop offset="50%" stop-color="lightgrey"/>
                <stop offset="100%" stop-color="darkgrey"/>
            </linearGradient>
            <linearGradient id="TopRingGradient" x1="0" x2="0" y1="0" y2="1">
                <stop offset="0%" stop-color="black" stop-opacity="0"/>
                <stop offset="49%" stop-color="grey" stop-opacity="0"/>
                <stop offset="50%" stop-color="grey" stop-opacity="1"/>
                <stop offset="100%" stop-color="darkgrey" stop-opacity="1"/>
            </linearGradient>
            <linearGradient id="BottomRingGradient" x1="0" x2="0" y1="0" y2="1">
                <stop offset="0%" stop-color="black" stop-opacity="1"/>
                <stop offset="50%" stop-color="grey" stop-opacity="1"/>
                <stop offset="51%" stop-color="grey" stop-opacity="0"/>
                <stop offset="100%" stop-color="darkgrey" stop-opacity="0"/>
            </linearGradient>
        </defs>
    <g stroke-linecap="round" stroke-width="0.56">
<circle cx="164" cy="114" fill="gold" r="0.75"/>
<line stroke="gold" x1="164" x2="164" y1="112.5" y2="115.5"/>
<line stroke="gold" x1="162.5" x2="165.5" y1="114" y2="114"/>
<circle cx="356" cy="78" fill="gold" r="0.75"/>
<line stroke="gold" x1="356" x2="356" y1="76.5" y2="79.5"/>
<line stroke="gold" x1="354.5" x2="357.5" y1="78" y2="78"/>
<circle cx="548" cy="114" fill="gold" r="0.75"/>
<line stroke="gold" x1="548" x2="548" y1="112.5" y2="115.5"/>
<line stroke="gold" x1="546.5" x2="549.5" y1="114" y2="114"/>
<circle cx="740" cy="78" fill="gold" r="0.75"/>
<line stroke="gold" x1="740" x2="740" y1="76.5" y2="79.5"/>
<line stroke="gold" x1="738.5" x2="741.5" y1="78" y2="78"/>
<circle cx="932" cy="114" fill="gold" r="0.75"/>
<line stroke="gold" x1="932" x2="932" y1="112.5" y2="115.5"/>
<line stroke="gold" x1="930.5" x2="933.5" y1="114" y2="114"/>
<circle cx="97" cy="45" fill="cyan" r="0.75"/>
<line stroke="cyan" x1="97" x2="97" y1="43.5" y2="46.5"/>
<line stroke="cyan" x1="95.5" x2="98.5" y1="45" y2="45"/>
<circle cx="289" cy="147" fill="cyan" r="0.75"/>
<line stroke="cyan" x1="289" x2="289" y1="145.5" y2="148.5"/>
<line stroke="cyan" x1="287.5" x2="290.5" y1="147" y2="147"/>
<circle cx="481" cy="45" fill="cyan" r="0.75"/>
<line stroke="cyan" x1="481" x2="481" y1="43.5" y2="46.5"/>
<line stroke="cyan" x1="479.5" x2="482.5" y1="45" y2="45"/>
<circle cx="673" cy="147" fill="cyan" r="0.75"/>
<line stroke="cyan" x1="673" x2="673" y1="145.5" y2="148.5"/>
<line stroke="cyan" x1="671.5" x2="674.5" y1="147" y2="147"/>
<circle cx="865" cy="45" fill="cyan" r="0.75"/>
<line stroke="cyan" x1="865" x2="865" y1="43.5" y2="46.5"/>
<line stroke="cyan" x1="863.5" x2="866.5" y1="45" y2="45"/>
<circle cx="134" cy="142" fill="brown" r="0.75"/>
<line stroke="brown" x1="134" x2="134" y1="140.5" y2="143.5"/>
<line stroke="brown" x1="132.5" x2="135.5" y1="142" y2="142"/>
<circle cx="326" cy="50" fill="brown" r="0.75"/>
<line stroke="brown" x1="326" x2="326" y1="48.5" y2="51.5"/>
<line stroke="brown" x1="324.5" x2="327.5" y1="50" y2="50"/>
<circle cx="518" cy="142" fill="brown" r="0.75"/>
<line stroke="brown" x1="518" x2="518" y1="140.5" y2="143.5"/>
<line stroke="brown" x1="516.5" x2="519.5" y1="142" y2="142"/>
<circle cx="710" cy="50" fill="brown" r="0.75"/>
<line stroke="brown" x1="710" x2="710" y1="48.5" y2="51.5"/>
<line stroke="brown" x1="708.5" x2="711.5" y1="50" y2="50"/>
<circle cx="902" cy="142" fill="brown" r="0.75"/>
<line stroke="brown" x1="902" x2="902" y1="140.5" y2="143.5"/>
<line stroke="brown" x1="900.5" x2="903.5" y1="142" y2="142"/>
<circle cx="147" cy="44" fill="red" r="0.75"/>
<line stroke="red" x1="147" x2="147" y1="42.5" y2="45.5"/>
<line stroke="red" x1="145.5" x2="148.5" y1="44" y2="44"/>
<circle cx="339" cy="148" fill="red" r="0.75"/>
<line stroke="red" x1="339" x2="339" y1="146.5" y2="149.5"/>
<line stroke="red" x1="337.5" x2="340.5" y1="148" y2="148"/>
<circle cx="531" cy="44" fill="red" r="0.75"/>
<line stroke="red" x1="531" x2="531" y1="42.5" y2="45.5"/>
<line stroke="red" x1="529.5" x2="532.5" y1="44" y2="44"/>
<circle cx="723" cy="148" fill="red" r="0.75"/>
<line stroke="red" x1="723" x2="723" y1="146.5" y2="149.5"/>
<line stroke="red" x1="721.5" x2="724.5" y1="148" y2="148"/>
<circle cx="915" cy="44" fill="red" r="0.75"/>
<line stroke="red" x1="915" x2="915" y1="42.5" y2="45.5"/>
<line stroke="red" x1="913.5" x2="916.5" y1="44" y2="44"/>
<circle cx="149" cy="4" fill="cyan" r="0.75"/>
<line stroke="cyan" x1="149" x2="149" y1="2.5" y2="5.5"/>
<line stroke="cyan" x1="147.5" x2="150.5" y1="4" y2="4"/>
<circle cx="341" cy="188" fill="cyan" r="0.75"/>
<line stroke="cyan" x1="341" x2="341" y1="186.5" y2="189.5"/>
<line stroke="cyan" x1="339.5" x2="342.5" y1="188" y2="188"/>
<circle cx="533" cy="4" fill="cyan" r="0.75"/>
<line stroke="cyan" x1="533" x2="533" y1="2.5" y2="5.5"/>
<line stroke="cyan" x1="531.5" x2="534.5" y1="4" y2="4"/>
<circle cx="725" cy="188" fill="cyan" r="0.75"/>
<line stroke="cyan" x1="725" x2="725" y1="186.5" y2="189.5"/>
<line stroke="cyan" x1="723.5" x2="726.5" y1="188" y2="188"/>
<circle cx="917" cy="4" fill="cyan" r="0.75"/>
<line stroke="cyan" x1="917" x2="917" y1="2.5" y2="5.5"/>
<line stroke="cyan" x1="915.5" x2="918.5" y1="4" y2="4"/>
<circle cx="24" cy="109" fill="gold" r="0.75"/>
<line stroke="gold" x1="24" x2="24" y1="107.5" y2="110.5"/>
<line stroke="gold" x1="22.5" x2="25.5" y1="109" y2="109"/>
<circle cx="216" cy="83" fill="gold" r="0.75"/>
<line stroke="gold" x1="216" x2="216" y1="81.5" y2="84.5"/>
<line stroke="gold" x1="214.5" x2="217.5" y1="83" y2="83"/>
<circle cx="408" cy="109" fill="gold" r="0.75"/>
<line stroke="gold" x1="408" x2="408" y1="107.5" y2="110.5"/>
<line stroke="gold" x1="406.5" x2="409.5" y1="109" y2="109"/>
<circle cx="600" cy="83" fill="gold" r="0.75"/>
<line stroke="gold" x1="600" x2="600" y1="81.5" y2="84.5"/>
<line stroke="gold" x1="598.5" x2="601.5" y1="83" y2="83"/>
<circle cx="792" cy="109" fill="gold" r="0.75"/>
<line stroke="gold" x1="792" x2="792" y1="107.5" y2="110.5"/>
<line stroke="gold" x1="790.5" x2="793.5" y1="109" y2="109"/>
<circle cx="984" cy="83" fill="gold" r="0.75"/>
<line stroke="gold" x1="984" x2="984" y1="81.5" y2="84.5"/>
<line stroke="gold" x1="982.5" x2="985.5" y1="83" y2="83"/>
<circle cx="89" cy="39" fill="cyan" r="0.75"/>
<line stroke="cyan" x1="89" x2="89" y1="37.5" y2="40.5"/>
<line stroke="cyan" x1="87.5" x2="90.5" y1="39" y2="39"/>
<circle cx="281" cy="153" fill="cyan" r="0.75"/>
<line stroke="cyan" x1="281" x2="281" y1="151.5" y2="154.5"/>
<line stroke="cyan" x1="279.5" x2="282.5" y1="153" y2="153"/>
<circle cx="473" cy="39" fill="cyan" r="0.75"/>
<line stroke="cyan" x1="473" x2="473" y1="37.5" y2="40.5"/>
<line stroke="cyan" x1="471.5" x2="474.5" y1="39" y2="39"/>
<circle cx="665" cy="153" fill="cyan" r="0.75"/>
<line stroke="cyan" x1="665" x2="665" y1="151.5" y2="154.5"/>
<line stroke="cyan" x1="663.5" x2="666.5" y1="153" y2="153"/>
<circle cx="857" cy="39" fill="cyan" r="0.75"/>
<line stroke="cyan" x1="857" x2="857" y1="37.5" y2="40.5"/>
<line stroke="cyan" x1="855.5" x2="858.5" y1="39" y2="39"/>
<circle cx="115" cy="76" fill="red" r="0.75"/>
<line stroke="red" x1="115" x2="115" y1="74.5" y2="77.5"/>
<line stroke="red" x1="113.5" x2="116.5" y1="76" y2="76"/>
<circle cx="307" cy="116" fill="red" r="0.75"/>
<line stroke="red" x1="307" x2="307" y1="114.5" y2="117.5"/>
<line stroke="red" x1="305.5" x2="308.5" y1="116" y2="116"/>
<circle cx="499" cy="76" fill="red" r="0.75"/>
<line stroke="red" x1="499" x2="499" y1="74.5" y2="77.5"/>
<line stroke="red" x1="497.5" x2="500.5" y1="76" y2="76"/>
<circle cx="691" cy="116" fill="red" r="0.75"/>
<line stroke="red" x1="691" x2="691" y1="114.5" y2="117.5"/>
<line stroke="red" x1="689.5" x2="692.5" y1="116" y2="116"/>
<circle cx="883" cy="76" fill="red" r="0.75"/>
<line stroke="red" x1="883" x2="883" y1="74.5" y2="77.5"/>
<line stroke="red" x1="881.5" x2="884.5" y1="76" y2="76"/>
<circle cx="2" cy="124" fill="cyan" r="0.75"/>
<line stroke="cyan" x1="2" x2="2" y1="122.5" y2="125.5"/>
<line stroke="cyan" x1="0.5" x2="3.5" y1="124" y2="124"/>
<circle cx="194" cy="68" fill="cyan" r="0.75"/>
<line stroke="cyan" x1="194" x2="194" y1="66.5" y2="69.5"/>
<line stroke="cyan" x1="192.5" x2="195.5" y1="68" y2="68"/>
<circle cx="386" cy="124" fill="cyan" r="0.75"/>
<line stroke="cyan" x1="386" x2="386" y1="122.5" y2="125.5"/>
<line stroke="cyan" x1="384.5" x2="387.5" y1="124" y2="124"/>
<circle cx="578" cy="68" fill="cyan" r="0.75"/>
<line stroke="cyan" x1="578" x2="578" y1="66.5" y2="69.5"/>
<line stroke="cyan" x1="576.5" x2="579.5" y1="68" y2="68"/>
<circle cx="770" cy="124" fill="cyan" r="0.75"/>
<line stroke="cyan" x1="770" x2="770" y1="122.5" y2="125.5"/>
<line stroke="cyan" x1="768.5" x2="771.5" y1="124" y2="124"/>
<circle cx="962" cy="68" fill="cyan" r="0.75"/>
<line stroke="cyan" x1="962" x2="962" y1="66.5" y2="69.5"/>
<line stroke="cyan" x1="960.5" x2="963.5" y1="68" y2="68"/>
<circle cx="152" cy="35" fill="brown" r="0.75"/>
<line stroke="brown" x1="152" x2="152" y1="33.5" y2="36.5"/>
<line stroke="brown" x1="150.5" x2="153.5" y1="35" y2="35"/>
<circle cx="344" cy="157" fill="brown" r="0.75"/>
<line stroke="brown" x1="344" x2="344" y1="155.5" y2="158.5"/>
<line stroke="brown" x1="342.5" x2="345.5" y1="157" y2="157"/>
<circle cx="536" cy="35" fill="brown" r="0.75"/>
<line stroke="brown" x1="536" x2="536" y1="33.5" y2="36.5"/>
<line stroke="brown" x1="534.5" x2="537.5" y1="35" y2="35"/>
<circle cx="728" cy="157" fill="brown" r="0.75"/>
<line stroke="brown" x1="728" x2="728" y1="155.5" y2="158.5"/>
<line stroke="brown" x1="726.5" x2="729.5" y1="157" y2="157"/>
<circle cx="920" cy="35" fill="brown" r="0.75"/>
<line stroke="brown" x1="920" x2="920" y1="33.5" y2="36.5"/>
<line stroke="brown" x1="918.5" x2="921.5" y1="35" y2="35"/>
<circle cx="51" cy="61" fill="red" r="0.75"/>
<line stroke="red" x1="51" x2="51" y1="59.5" y2="62.5"/>
<line stroke="red" x1="49.5" x2="52.5" y1="61" y2="61"/>
<circle cx="243" cy="131" fill="red" r="0.75"/>
<line stroke="red" x1="243" x2="243" y1="129.5" y2="132.5"/>
<line stroke="red" x1="241.5" x2="244.5" y1="131" y2="131"/>
<circle cx="435" cy="61" fill="red" r="0.75"/>
<line stroke="red" x1="435" x2="435" y1="59.5" y2="62.5"/>
<line stroke="red" x1="433.5" x2="436.5" y1="61" y2="61"/>
<circle cx="627" cy="131" fill="red" r="0.75"/>
<line stroke="red" x1="627" x2="627" y1="129.5" y2="132.5"/>
<line stroke="red" x1="625.5" x2="628.5" y1="131" y2="131"/>
<circle cx="819" cy="61" fill="red" r="0.75"/>
<line stroke="red" x1="819" x2="819" y1="59.5" y2="62.5"/>
<line stroke="red" x1="817.5" x2="820.5" y1="61" y2="61"/>
<circle cx="1011" cy="131" fill="red" r="0.75"/>
<line stroke="red" x1="1011" x2="1011" y1="129.5" y2="132.5"/>
<line stroke="red" x1="1009.5" x2="1012.5" y1="131" y2="131"/>
<circle cx="163" cy="34" fill="cyan" r="0.75"/>
<line stroke="cyan" x1="163" x2="163" y1="32.5" y2="35.5"/>
<line stroke="cyan" x1="161.5" x2="164.5" y1="34" y2="34"/>
<circle cx="355" cy="158" fill="cyan" r="0.75"/>
<line stroke="cyan" x1="355" x2="355" y1="156.5" y2="159.5"/>
<line stroke="cyan" x1="353.5" x2="356.5" y1="158" y2="158"/>
<circle cx="547" cy="34" fill="cyan" r="0.75"/>
<line stroke="cyan" x1="547" x2="547" y1="32.5" y2="35.5"/>
<line stroke="cyan" x1="545.5" x2="548.5" y1="34" y2="34"/>
<circle cx="739" cy="158" fill="cyan" r="0.75"/>
<line stroke="cyan" x1="739" x2="739" y1="156.5" y2="159.5"/>
<line stroke="cyan" x1="737.5" x2="740.5" y1="158" y2="158"/>
<circle cx="931" cy="34" fill="cyan" r="0.75"/>
<line stroke="cyan" x1="931" x2="931" y1="32.5" y2="35.5"/>
<line stroke="cyan" x1="929.5" x2="932.5" y1="34" y2="34"/>
<circle cx="108" cy="104" fill="red" r="0.75"/>
<line stroke="red" x1="108" x2="108" y1="102.5" y2="105.5"/>
<line stroke="red" x1="106.5" x2="109.5" y1="104" y2="104"/>
<circle cx="300" cy="88" fill="red" r="0.75"/>
<line stroke="red" x1="300" x2="300" y1="86.5" y2="89.5"/>
<line stroke="red" x1="298.5" x2="301.5" y1="88" y2="88"/>
<circle cx="492" cy="104" fill="red" r="0.75"/>
<line stroke="red" x1="492" x2="492" y1="102.5" y2="105.5"/>
<line stroke="red" x1="490.5" x2="493.5" y1="104" y2="104"/>
<circle cx="684" cy="88" fill="red" r="0.75"/>
<line stroke="red" x1="684" x2="684" y1="86.5" y2="89.5"/>
<line stroke="red" x1="682.5" x2="685.5" y1="88" y2="88"/>
<circle cx="876" cy="104" fill="red" r="0.75"/>
<line stroke="red" x1="876" x2="876" y1="102.5" y2="105.5"/>
<line stroke="red" x1="874.5" x2="877.5" y1="104" y2="104"/>
<circle cx="102" cy="29" fill="red" r="0.75"/>
<line stroke="red" x1="102" x2="102" y1="27.5" y2="30.5"/>
<line stroke="red" x1="100.5" x2="103.5" y1="29" y2="29"/>
<circle cx="294" cy="163" fill="red" r="0.75"/>
<line stroke="red" x1="294" x2="294" y1="161.5" y2="164.5"/>
<line stroke="red" x1="292.5" x2="295.5" y1="163" y2="163"/>
<circle cx="486" cy="29" fill="red" r="0.75"/>
<line stroke="red" x1="486" x2="486" y1="27.5" y2="30.5"/>
<line stroke="red" x1="484.5" x2="487.5" y1="29" y2="29"/>
<circle cx="678" cy="163" fill="red" r="0.75"/>
<line stroke="red" x1="678" x2="678" y1="161.5" y2="164.5"/>
<line stroke="red" x1="676.5" x2="679.5" y1="163" y2="163"/>
<circle cx="870" cy="29" fill="red" r="0.75"/>
<line stroke="red" x1="870" x2="870" y1="27.5" y2="30.5"/>
<line stroke="red" x1="868.5" x2="871.5" y1="29" y2="29"/>
<circle cx="82" cy="127" fill="cyan" r="0.75"/>
<line stroke="cyan" x1="82" x2="82" y1="125.5" y2="128.5"/>
<line stroke="cyan" x1="80.5" x2="83.5" y1="127" y2="127"/>
<circle cx="274" cy="65" fill="cyan" r="0.75"/>
<line stroke="cyan" x1="274" x2="274" y1="63.5" y2="66.5"/>
<line stroke="cyan" x1="272.5" x2="275.5" y1="65" y2="65"/>
<circle cx="466" cy="127" fill="cyan" r="0.75"/>
<line stroke="cyan" x1="466" x2="466" y1="125.5" y2="128.5"/>
<line stroke="cyan" x1="464.5" x2="467.5" y1="127" y2="127"/>
<circle cx="658" cy="65" fill="cyan" r="0.75"/>
<line stroke="cyan" x1="658" x2="658" y1="63.5" y2="66.5"/>
<line stroke="cyan" x1="656.5" x2="659.5" y1="65" y2="65"/>
<circle cx="850" cy="127" fill="cyan" r="0.75"/>
<line stroke="cyan" x1="850" x2="850" y1="125.5" y2="128.5"/>
<line stroke="cyan" x1="848.5" x2="851.5" y1="127" y2="127"/>
<circle cx="24" cy="74" fill="red" r="0.75"/>
<line stroke="red" x1="24" x2="24" y1="72.5" y2="75.5"/>
<line stroke="red" x1="22.5" x2="25.5" y1="74" y2="74"/>
<circle cx="216" cy="118" fill="red" r="0.75"/>
<line stroke="red" x1="216" x2="216" y1="116.5" y2="119.5"/>
<line stroke="red" x1="214.5" x2="217.5" y1="118" y2="118"/>
<circle cx="408" cy="74" fill="red" r="0.75"/>
<line stroke="red" x1="408" x2="408" y1="72.5" y2="75.5"/>
<line stroke="red" x1="406.5" x2="409.5" y1="74" y2="74"/>
<circle cx="600" cy="118" fill="red" r="0.75"/>
<line stroke="red" x1="600" x2="600" y1="116.5" y2="119.5"/>
<line stroke="red" x1="598.5" x2="601.5" y1="118" y2="118"/>
<circle cx="792" cy="74" fill="red" r="0.75"/>
<line stroke="red" x1="792" x2="792" y1="72.5" y2="75.5"/>
<line stroke="red" x1="790.5" x2="793.5" y1="74" y2="74"/>
<circle cx="984" cy="118" fill="red" r="0.75"/>
<line stroke="red" x1="984" x2="984" y1="116.5" y2="119.5"/>
<line stroke="red" x1="982.5" x2="985.5" y1="118" y2="118"/>
<circle cx="124" cy="152" fill="red" r="0.75"/>
<line stroke="red" x1="124" x2="124" y1="150.5" y2="153.5"/>
<line stroke="red" x1="122.5" x2="125.5" y1="152" y2="152"/>
<circle cx="316" cy="40" fill="red" r="0.75"/>
<line stroke="red" x1="316" x2="316" y1="38.5" y2="41.5"/>
<line stroke="red" x1="314.5" x2="317.5" y1="40" y2="40"/>
<circle cx="508" cy="152" fill="red" r="0.75"/>
<line stroke="red" x1="508" x2="508" y1="150.5" y2="153.5"/>
<line stroke="red" x1="506.5" x2="509.5" y1="152" y2="152"/>
<circle cx="700" cy="40" fill="red" r="0.75"/>
<line stroke="red" x1="700" x2="700" y1="38.5" y2="41.5"/>
<line stroke="red" x1="698.5" x2="701.5" y1="40" y2="40"/>
<circle cx="892" cy="152" fill="red" r="0.75"/>
<line stroke="red" x1="892" x2="892" y1="150.5" y2="153.5"/>
<line stroke="red" x1="890.5" x2="893.5" y1="152" y2="152"/>
<circle cx="48" cy="49" fill="brown" r="0.75"/>
<line stroke="brown" x1="48" x2="48" y1="47.5" y2="50.5"/>
<line stroke="brown" x1="46.5" x2="49.5" y1="49" y2="49"/>
<circle cx="240" cy="143" fill="brown" r="0.75"/>
<line stroke="brown" x1="240" x2="240" y1="141.5" y2="144.5"/>
<line stroke="brown" x1="238.5" x2="241.5" y1="143" y2="143"/>
<circle cx="432" cy="49" fill="brown" r="0.75"/>
<line stroke="brown" x1="432" x2="432" y1="47.5" y2="50.5"/>
<line stroke="brown" x1="430.5" x2="433.5" y1="49" y2="49"/>
<circle cx="624" cy="143" fill="brown" r="0.75"/>
<line stroke="brown" x1="624" x2="624" y1="141.5" y2="144.5"/>
<line stroke="brown" x1="622.5" x2="625.5" y1="143" y2="143"/>
<circle cx="816" cy="49" fill="brown" r="0.75"/>
<line stroke="brown" x1="816" x2="816" y1="47.5" y2="50.5"/>
<line stroke="brown" x1="814.5" x2="817.5" y1="49" y2="49"/>
<circle cx="1008" cy="143" fill="brown" r="0.75"/>
<line stroke="brown" x1="1008" x2="1008" y1="141.5" y2="144.5"/>
<line stroke="brown" x1="1006.5" x2="1009.5" y1="143" y2="143"/>
<circle cx="139" cy="25" fill="brown" r="0.75"/>
<line stroke="brown" x1="139" x2="139" y1="23.5" y2="26.5"/>
<line stroke="brown" x1="137.5" x2="140.5" y1="25" y2="25"/>
<circle cx="331" cy="167" fill="brown" r="0.75"/>
<line stroke="brown" x1="331" x2="331" y1="165.5" y2="168.5"/>
<line stroke="brown" x1="329.5" x2="332.5" y1="167" y2="167"/>
<circle cx="523" cy="25" fill="brown" r="0.75"/>
<line stroke="brown" x1="523" x2="523" y1="23.5" y2="26.5"/>
<line stroke="brown" x1="521.5" x2="524.5" y1="25" y2="25"/>
<circle cx="715" cy="167" fill="brown" r="0.75"/>
<line stroke="brown" x1="715" x2="715" y1="165.5" y2="168.5"/>
<line stroke="brown" x1="713.5" x2="716.5" y1="167" y2="167"/>
<circle cx="907" cy="25" fill="brown" r="0.75"/>
<line stroke="brown" x1="907" x2="907" y1="23.5" y2="26.5"/>
<line stroke="brown" x1="905.5" x2="908.5" y1="25" y2="25"/>
<circle cx="5" cy="104" fill="red" r="0.75"/>
<line stroke="red" x1="5" x2="5" y1="102.5" y2="105.5"/>
<line stroke="red" x1="3.5" x2="6.5" y1="104" y2="104"/>
<circle cx="197" cy="88" fill="red" r="0.75"/>
<line stroke="red" x1="197" x2="197" y1="86.5" y2="89.5"/>
<line stroke="red" x1="195.5" x2="198.5" y1="88" y2="88"/>
<circle cx="389" cy="104" fill="red" r="0.75"/>
<line stroke="red" x1="389" x2="389" y1="102.5" y2="105.5"/>
<line stroke="red" x1="387.5" x2="390.5" y1="104" y2="104"/>
<circle cx="581" cy="88" fill="red" r="0.75"/>
<line stroke="red" x1="581" x2="581" y1="86.5" y2="89.5"/>
<line stroke="red" x1="579.5" x2="582.5" y1="88" y2="88"/>
<circle cx="773" cy="104" fill="red" r="0.75"/>
<line stroke="red" x1="773" x2="773" y1="102.5" y2="105.5"/>
<line stroke="red" x1="771.5" x2="774.5" y1="104" y2="104"/>
<circle cx="965" cy="88" fill="red" r="0.75"/>
<line stroke="red" x1="965" x2="965" y1="86.5" y2="89.5"/>
<line stroke="red" x1="963.5" x2="966.5" y1="88" y2="88"/>
<circle cx="145" cy="91" fill="gold" r="0.75"/>
<line stroke="gold" x1="145" x2="145" y1="89.5" y2="92.5"/>
<line stroke="gold" x1="143.5" x2="146.5" y1="91" y2="91"/>
<circle cx="337" cy="101" fill="gold" r="0.75"/>
<line stroke="gold" x1="337" x2="337" y1="99.5" y2="102.5"/>
<line stroke="gold" x1="335.5" x2="338.5" y1="101" y2="101"/>
<circle cx="529" cy="91" fill="gold" r="0.75"/>
<line stroke="gold" x1="529" x2="529" y1="89.5" y2="92.5"/>
<line stroke="gold" x1="527.5" x2="530.5" y1="91" y2="91"/>
<circle cx="721" cy="101" fill="gold" r="0.75"/>
<line stroke="gold" x1="721" x2="721" y1="99.5" y2="102.5"/>
<line stroke="gold" x1="719.5" x2="722.5" y1="101" y2="101"/>
<circle cx="913" cy="91" fill="gold" r="0.75"/>
<line stroke="gold" x1="913" x2="913" y1="89.5" y2="92.5"/>
<line stroke="gold" x1="911.5" x2="914.5" y1="91" y2="91"/>
<circle cx="121" cy="49" fill="gold" r="0.75"/>
<line stroke="gold" x1="121" x2="121" y1="47.5" y2="50.5"/>
<line stroke="gold" x1="119.5" x2="122.5" y1="49" y2="49"/>
<circle cx="313" cy="143" fill="gold" r="0.75"/>
<line stroke="gold" x1="313" x2="313" y1="141.5" y2="144.5"/>
<line stroke="gold" x1="311.5" x2="314.5" y1="143" y2="143"/>
<circle cx="505" cy="49" fill="gold" r="0.75"/>
<line stroke="gold" x1="505" x2="505" y1="47.5" y2="50.5"/>
<line stroke="gold" x1="503.5" x2="506.5" y1="49" y2="49"/>
<circle cx="697" cy="143" fill="gold" r="0.75"/>
<line stroke="gold" x1="697" x2="697" y1="141.5" y2="144.5"/>
<line stroke="gold" x1="695.5" x2="698.5" y1="143" y2="143"/>
<circle cx="889" cy="49" fill="gold" r="0.75"/>
<line stroke="gold" x1="889" x2="889" y1="47.5" y2="50.5"/>
<line stroke="gold" x1="887.5" x2="890.5" y1="49" y2="49"/>
<circle cx="93" cy="115" fill="brown" r="0.75"/>
<line stroke="brown" x1="93" x2="93" y1="113.5" y2="116.5"/>
<line stroke="brown" x1="91.5" x2="94.5" y1="115" y2="115"/>
<circle cx="285" cy="77" fill="brown" r="0.75"/>
<line stroke="brown" x1="285" x2="285" y1="75.5" y2="78.5"/>
<line stroke="brown" x1="283.5" x2="286.5" y1="77" y2="77"/>
<circle cx="477" cy="115" fill="brown" r="0.75"/>
<line stroke="brown" x1="477" x2="477" y1="113.5" y2="116.5"/>
<line stroke="brown" x1="475.5" x2="478.5" y1="115" y2="115"/>
<circle cx="669" cy="77" fill="brown" r="0.75"/>
<line stroke="brown" x1="669" x2="669" y1="75.5" y2="78.5"/>
<line stroke="brown" x1="667.5" x2="670.5" y1="77" y2="77"/>
<circle cx="861" cy="115" fill="brown" r="0.75"/>
<line stroke="brown" x1="861" x2="861" y1="113.5" y2="116.5"/>
<line stroke="brown" x1="859.5" x2="862.5" y1="115" y2="115"/>
<circle cx="36" cy="15" fill="brown" r="0.75"/>
<line stroke="brown" x1="36" x2="36" y1="13.5" y2="16.5"/>
<line stroke="brown" x1="34.5" x2="37.5" y1="15" y2="15"/>
<circle cx="228" cy="177" fill="brown" r="0.75"/>
<line stroke="brown" x1="228" x2="228" y1="175.5" y2="178.5"/>
<line stroke="brown" x1="226.5" x2="229.5" y1="177" y2="177"/>
<circle cx="420" cy="15" fill="brown" r="0.75"/>
<line stroke="brown" x1="420" x2="420" y1="13.5" y2="16.5"/>
<line stroke="brown" x1="418.5" x2="421.5" y1="15" y2="15"/>
<circle cx="612" cy="177" fill="brown" r="0.75"/>
<line stroke="brown" x1="612" x2="612" y1="175.5" y2="178.5"/>
<line stroke="brown" x1="610.5" x2="613.5" y1="177" y2="177"/>
<circle cx="804" cy="15" fill="brown" r="0.75"/>
<line stroke="brown" x1="804" x2="804" y1="13.5" y2="16.5"/>
<line stroke="brown" x1="802.5" x2="805.5" y1="15" y2="15"/>
<circle cx="996" cy="177" fill="brown" r="0.75"/>
<line stroke="brown" x1="996" x2="996" y1="175.5" y2="178.5"/>
<line stroke="brown" x1="994.5" x2="997.5" y1="177" y2="177"/>
<circle cx="29" cy="149" fill="cyan" r="0.75"/>
<line stroke="cyan" x1="29" x2="29" y1="147.5" y2="150.5"/>
<line stroke="cyan" x1="27.5" x2="30.5" y1="149" y2="149"/>
<circle cx="221" cy="43" fill="cyan" r="0.75"/>
<line stroke="cyan" x1="221" x2="221" y1="41.5" y2="44.5"/>
<line stroke="cyan" x1="219.5" x2="222.5" y1="43" y2="43"/>
<circle cx="413" cy="149" fill="cyan" r="0.75"/>
<line stroke="cyan" x1="413" x2="413" y1="147.5" y2="150.5"/>
<line stroke="cyan" x1="411.5" x2="414.5" y1="149" y2="149"/>
<circle cx="605" cy="43" fill="cyan" r="0.75"/>
<line stroke="cyan" x1="605" x2="605" y1="41.5" y2="44.5"/>
<line stroke="cyan" x1="603.5" x2="606.5" y1="43" y2="43"/>
<circle cx="797" cy="149" fill="cyan" r="0.75"/>
<line stroke="cyan" x1="797" x2="797" y1="147.5" y2="150.5"/>
<line stroke="cyan" x1="795.5" x2="798.5" y1="149" y2="149"/>
<circle cx="989" cy="43" fill="cyan" r="0.75"/>
<line stroke="cyan" x1="989" x2="989" y1="41.5" y2="44.5"/>
<line stroke="cyan" x1="987.5" x2="990.5" y1="43" y2="43"/>
<circle cx="25" cy="146" fill="red" r="0.75"/>
<line stroke="red" x1="25" x2="25" y1="144.5" y2="147.5"/>
<line stroke="red" x1="23.5" x2="26.5" y1="146" y2="146"/>
<circle cx="217" cy="46" fill="red" r="0.75"/>
<line stroke="red" x1="217" x2="217" y1="44.5" y2="47.5"/>
<line stroke="red" x1="215.5" x2="218.5" y1="46" y2="46"/>
<circle cx="409" cy="146" fill="red" r="0.75"/>
<line stroke="red" x1="409" x2="409" y1="144.5" y2="147.5"/>
<line stroke="red" x1="407.5" x2="410.5" y1="146" y2="146"/>
<circle cx="601" cy="46" fill="red" r="0.75"/>
<line stroke="red" x1="601" x2="601" y1="44.5" y2="47.5"/>
<line stroke="red" x1="599.5" x2="602.5" y1="46" y2="46"/>
<circle cx="793" cy="146" fill="red" r="0.75"/>
<line stroke="red" x1="793" x2="793" y1="144.5" y2="147.5"/>
<line stroke="red" x1="791.5" x2="794.5" y1="146" y2="146"/>
<circle cx="985" cy="46" fill="red" r="0.75"/>
<line stroke="red" x1="985" x2="985" y1="44.5" y2="47.5"/>
<line stroke="red" x1="983.5" x2="986.5" y1="46" y2="46"/>
<circle cx="113" cy="36" fill="red" r="0.75"/>
<line stroke="red" x1="113" x2="113" y1="34.5" y2="37.5"/>
<line stroke="red" x1="111.5" x2="114.5" y1="36" y2="36"/>
<circle cx="305" cy="156" fill="red" r="0.75"/>
<line stroke="red" x1="305" x2="305" y1="154.5" y2="157.5"/>
<line stroke="red" x1="303.5" x2="306.5" y1="156" y2="156"/>
<circle cx="497" cy="36" fill="red" r="0.75"/>
<line stroke="red" x1="497" x2="497" y1="34.5" y2="37.5"/>
<line stroke="red" x1="495.5" x2="498.5" y1="36" y2="36"/>
<circle cx="689" cy="156" fill="red" r="0.75"/>
<line stroke="red" x1="689" x2="689" y1="154.5" y2="157.5"/>
<line stroke="red" x1="687.5" x2="690.5" y1="156" y2="156"/>
<circle cx="881" cy="36" fill="red" r="0.75"/>
<line stroke="red" x1="881" x2="881" y1="34.5" y2="37.5"/>
<line stroke="red" x1="879.5" x2="882.5" y1="36" y2="36"/>
<circle cx="9" cy="92" fill="brown" r="0.75"/>
<line stroke="brown" x1="9" x2="9" y1="90.5" y2="93.5"/>
<line stroke="brown" x1="7.5" x2="10.5" y1="92" y2="92"/>
<circle cx="201" cy="100" fill="brown" r="0.75"/>
<line stroke="brown" x1="201" x2="201" y1="98.5" y2="101.5"/>
<line stroke="brown" x1="199.5" x2="202.5" y1="100" y2="100"/>
<circle cx="393" cy="92" fill="brown" r="0.75"/>
<line stroke="brown" x1="393" x2="393" y1="90.5" y2="93.5"/>
<line stroke="brown" x1="391.5" x2="394.5" y1="92" y2="92"/>
<circle cx="585" cy="100" fill="brown" r="0.75"/>
<line stroke="brown" x1="585" x2="585" y1="98.5" y2="101.5"/>
<line stroke="brown" x1="583.5" x2="586.5" y1="100" y2="100"/>
<circle cx="777" cy="92" fill="brown" r="0.75"/>
<line stroke="brown" x1="777" x2="777" y1="90.5" y2="93.5"/>
<line stroke="brown" x1="775.5" x2="778.5" y1="92" y2="92"/>
<circle cx="969" cy="100" fill="brown" r="0.75"/>
<line stroke="brown" x1="969" x2="969" y1="98.5" y2="101.5"/>
<line stroke="brown" x1="967.5" x2="970.5" y1="100" y2="100"/>
<circle cx="123" cy="19" fill="cyan" r="0.75"/>
<line stroke="cyan" x1="123" x2="123" y1="17.5" y2="20.5"/>
<line stroke="cyan" x1="121.5" x2="124.5" y1="19" y2="19"/>
<circle cx="315" cy="173" fill="cyan" r="0.75"/>
<line stroke="cyan" x1="315" x2="315" y1="171.5" y2="174.5"/>
<line stroke="cyan" x1="313.5" x2="316.5" y1="173" y2="173"/>
<circle cx="507" cy="19" fill="cyan" r="0.75"/>
<line stroke="cyan" x1="507" x2="507" y1="17.5" y2="20.5"/>
<line stroke="cyan" x1="505.5" x2="508.5" y1="19" y2="19"/>
<circle cx="699" cy="173" fill="cyan" r="0.75"/>
<line stroke="cyan" x1="699" x2="699" y1="171.5" y2="174.5"/>
<line stroke="cyan" x1="697.5" x2="700.5" y1="173" y2="173"/>
<circle cx="891" cy="19" fill="cyan" r="0.75"/>
<line stroke="cyan" x1="891" x2="891" y1="17.5" y2="20.5"/>
<line stroke="cyan" x1="889.5" x2="892.5" y1="19" y2="19"/>
<circle cx="88" cy="59" fill="red" r="0.75"/>
<line stroke="red" x1="88" x2="88" y1="57.5" y2="60.5"/>
<line stroke="red" x1="86.5" x2="89.5" y1="59" y2="59"/>
<circle cx="280" cy="133" fill="red" r="0.75"/>
<line stroke="red" x1="280" x2="280" y1="131.5" y2="134.5"/>
<line stroke="red" x1="278.5" x2="281.5" y1="133" y2="133"/>
<circle cx="472" cy="59" fill="red" r="0.75"/>
<line stroke="red" x1="472" x2="472" y1="57.5" y2="60.5"/>
<line stroke="red" x1="470.5" x2="473.5" y1="59" y2="59"/>
<circle cx="664" cy="133" fill="red" r="0.75"/>
<line stroke="red" x1="664" x2="664" y1="131.5" y2="134.5"/>
<line stroke="red" x1="662.5" x2="665.5" y1="133" y2="133"/>
<circle cx="856" cy="59" fill="red" r="0.75"/>
<line stroke="red" x1="856" x2="856" y1="57.5" y2="60.5"/>
<line stroke="red" x1="854.5" x2="857.5" y1="59" y2="59"/>
</g>
<g transform="translate(512, 96) rotate(15)">
<circle cx="57.28" cy="-57.28" fill="url(#MoonGradient)" r="22.5"/>
<ellipse fill-opacity="0" rx="90" ry="29.7" stroke="url(#BottomRingGradient)" stroke-width="15"/>
<circle fill="url(#PlanetGradient)" r="72"/>
<text dx="0" dy="12.0" fill="black" stroke="black" stroke-width="1.5">LuaX</text>
<text dx="-3.0" dy="9.0" fill="white">LuaX</text>
<ellipse fill-opacity="0" rx="90" ry="29.7" stroke="url(#TopRingGradient)" stroke-width="15"/>
</g>
</svg>
