<svg font-family="Liberation Sans Bold" font-size="48" height="192" text-anchor="middle" version="1.1" width="1024" xmlns="http://www.w3.org/2000/svg">
<!--
This file is part of luax.

luax is free software: you can redistribute it and/or modify
it under the terms of the GNU General Public License as published by
the Free Software Foundation, either version 3 of the License, or
(at your option) any later version.

luax is distributed in the hope that it will be useful,
but WITHOUT ANY WARRANTY; without even the implied warranty of
MERCHANTABILITY or FITNESS FOR A PARTICULAR PURPOSE.  See the
GNU General Public License for more details.

You should have received a copy of the GNU General Public License
along with luax.  If not, see <https://www.gnu.org/licenses/>.

For further information about luax you can visit
http://cdelord.fr/luax
-->
        <defs>
            <linearGradient id="PlanetGradient" x1="0" x2="0" y1="0" y2="1">
                <stop offset="0%" stop-color="lightgrey"/>
                <stop offset="15%" stop-color="cyan"/>
                <stop offset="30%" stop-color="orange"/>
                <stop offset="70%" stop-color="green"/>
                <stop offset="85%" stop-color="blue"/>
                <stop offset="100%" stop-color="lightgrey"/>
            </linearGradient>
            <linearGradient id="MoonGradient" x1="0" x2="0" y1="0" y2="1">
                <stop offset="0%" stop-color="darkgrey"/>
                <stop offset="50%" stop-color="lightgrey"/>
                <stop offset="100%" stop-color="darkgrey"/>
            </linearGradient>
            <linearGradient id="TopRingGradient" x1="0" x2="0" y1="0" y2="1">
                <stop offset="0%" stop-color="black" stop-opacity="0"/>
                <stop offset="49%" stop-color="grey" stop-opacity="0"/>
                <stop offset="50%" stop-color="grey" stop-opacity="1"/>
                <stop offset="100%" stop-color="darkgrey" stop-opacity="1"/>
            </linearGradient>
            <linearGradient id="BottomRingGradient" x1="0" x2="0" y1="0" y2="1">
                <stop offset="0%" stop-color="black" stop-opacity="1"/>
                <stop offset="50%" stop-color="grey" stop-opacity="1"/>
                <stop offset="51%" stop-color="grey" stop-opacity="0"/>
                <stop offset="100%" stop-color="darkgrey" stop-opacity="0"/>
            </linearGradient>
        </defs>
    <g stroke-linecap="round" stroke-width="0.56">
<circle cx="704" cy="106" fill="brown" r="0.75"/>
<line stroke="brown" x1="704" x2="704" y1="104.12" y2="107.88"/>
<line stroke="brown" x1="702.12" x2="705.88" y1="106" y2="106"/>
<circle cx="923" cy="116" fill="brown" r="0.75"/>
<line stroke="brown" x1="923" x2="923" y1="114.12" y2="117.88"/>
<line stroke="brown" x1="921.12" x2="924.88" y1="116" y2="116"/>
<circle cx="353" cy="44" fill="cyan" r="0.75"/>
<line stroke="cyan" x1="353" x2="353" y1="42.12" y2="45.88"/>
<line stroke="cyan" x1="351.12" x2="354.88" y1="44" y2="44"/>
<circle cx="701" cy="87" fill="brown" r="0.75"/>
<line stroke="brown" x1="701" x2="701" y1="85.12" y2="88.88"/>
<line stroke="brown" x1="699.12" x2="702.88" y1="87" y2="87"/>
<circle cx="551" cy="135" fill="red" r="0.75"/>
<line stroke="red" x1="551" x2="551" y1="133.12" y2="136.88"/>
<line stroke="red" x1="549.12" x2="552.88" y1="135" y2="135"/>
<circle cx="360" cy="163" fill="gold" r="0.75"/>
<line stroke="gold" x1="360" x2="360" y1="161.12" y2="164.88"/>
<line stroke="gold" x1="358.12" x2="361.88" y1="163" y2="163"/>
<circle cx="317" cy="188" fill="cyan" r="0.75"/>
<line stroke="cyan" x1="317" x2="317" y1="186.12" y2="189.88"/>
<line stroke="cyan" x1="315.12" x2="318.88" y1="188" y2="188"/>
<circle cx="620" cy="126" fill="cyan" r="0.75"/>
<line stroke="cyan" x1="620" x2="620" y1="124.12" y2="127.88"/>
<line stroke="cyan" x1="618.12" x2="621.88" y1="126" y2="126"/>
<circle cx="185" cy="83" fill="cyan" r="0.75"/>
<line stroke="cyan" x1="185" x2="185" y1="81.12" y2="84.88"/>
<line stroke="cyan" x1="183.12" x2="186.88" y1="83" y2="83"/>
<circle cx="692" cy="67" fill="cyan" r="0.75"/>
<line stroke="cyan" x1="692" x2="692" y1="65.12" y2="68.88"/>
<line stroke="cyan" x1="690.12" x2="693.88" y1="67" y2="67"/>
<circle cx="585" cy="133" fill="brown" r="0.75"/>
<line stroke="brown" x1="585" x2="585" y1="131.12" y2="134.88"/>
<line stroke="brown" x1="583.12" x2="586.88" y1="133" y2="133"/>
<circle cx="248" cy="102" fill="red" r="0.75"/>
<line stroke="red" x1="248" x2="248" y1="100.12" y2="103.88"/>
<line stroke="red" x1="246.12" x2="249.88" y1="102" y2="102"/>
<circle cx="134" cy="133" fill="gold" r="0.75"/>
<line stroke="gold" x1="134" x2="134" y1="131.12" y2="134.88"/>
<line stroke="gold" x1="132.12" x2="135.88" y1="133" y2="133"/>
<circle cx="816" cy="134" fill="red" r="0.75"/>
<line stroke="red" x1="816" x2="816" y1="132.12" y2="135.88"/>
<line stroke="red" x1="814.12" x2="817.88" y1="134" y2="134"/>
<circle cx="857" cy="122" fill="gold" r="0.75"/>
<line stroke="gold" x1="857" x2="857" y1="120.12" y2="123.88"/>
<line stroke="gold" x1="855.12" x2="858.88" y1="122" y2="122"/>
<circle cx="875" cy="95" fill="red" r="0.75"/>
<line stroke="red" x1="875" x2="875" y1="93.12" y2="96.88"/>
<line stroke="red" x1="873.12" x2="876.88" y1="95" y2="95"/>
<circle cx="224" cy="145" fill="cyan" r="0.75"/>
<line stroke="cyan" x1="224" x2="224" y1="143.12" y2="146.88"/>
<line stroke="cyan" x1="222.12" x2="225.88" y1="145" y2="145"/>
<circle cx="417" cy="170" fill="cyan" r="0.75"/>
<line stroke="cyan" x1="417" x2="417" y1="168.12" y2="171.88"/>
<line stroke="cyan" x1="415.12" x2="418.88" y1="170" y2="170"/>
<circle cx="900" cy="101" fill="gold" r="0.75"/>
<line stroke="gold" x1="900" x2="900" y1="99.12" y2="102.88"/>
<line stroke="gold" x1="898.12" x2="901.88" y1="101" y2="101"/>
<circle cx="30" cy="162" fill="cyan" r="0.75"/>
<line stroke="cyan" x1="30" x2="30" y1="160.12" y2="163.88"/>
<line stroke="cyan" x1="28.12" x2="31.88" y1="162" y2="162"/>
<circle cx="238" cy="93" fill="gold" r="0.75"/>
<line stroke="gold" x1="238" x2="238" y1="91.12" y2="94.88"/>
<line stroke="gold" x1="236.12" x2="239.88" y1="93" y2="93"/>
<circle cx="141" cy="181" fill="brown" r="0.75"/>
<line stroke="brown" x1="141" x2="141" y1="179.12" y2="182.88"/>
<line stroke="brown" x1="139.12" x2="142.88" y1="181" y2="181"/>
<circle cx="344" cy="60" fill="red" r="0.75"/>
<line stroke="red" x1="344" x2="344" y1="58.12" y2="61.88"/>
<line stroke="red" x1="342.12" x2="345.88" y1="60" y2="60"/>
<circle cx="646" cy="69" fill="cyan" r="0.75"/>
<line stroke="cyan" x1="646" x2="646" y1="67.12" y2="70.88"/>
<line stroke="cyan" x1="644.12" x2="647.88" y1="69" y2="69"/>
<circle cx="639" cy="110" fill="gold" r="0.75"/>
<line stroke="gold" x1="639" x2="639" y1="108.12" y2="111.88"/>
<line stroke="gold" x1="637.12" x2="640.88" y1="110" y2="110"/>
<circle cx="255" cy="110" fill="brown" r="0.75"/>
<line stroke="brown" x1="255" x2="255" y1="108.12" y2="111.88"/>
<line stroke="brown" x1="253.12" x2="256.88" y1="110" y2="110"/>
<circle cx="872" cy="116" fill="red" r="0.75"/>
<line stroke="red" x1="872" x2="872" y1="114.12" y2="117.88"/>
<line stroke="red" x1="870.12" x2="873.88" y1="116" y2="116"/>
<circle cx="938" cy="153" fill="brown" r="0.75"/>
<line stroke="brown" x1="938" x2="938" y1="151.12" y2="154.88"/>
<line stroke="brown" x1="936.12" x2="939.88" y1="153" y2="153"/>
<circle cx="564" cy="95" fill="brown" r="0.75"/>
<line stroke="brown" x1="564" x2="564" y1="93.12" y2="96.88"/>
<line stroke="brown" x1="562.12" x2="565.88" y1="95" y2="95"/>
<circle cx="866" cy="128" fill="brown" r="0.75"/>
<line stroke="brown" x1="866" x2="866" y1="126.12" y2="129.88"/>
<line stroke="brown" x1="864.12" x2="867.88" y1="128" y2="128"/>
<circle cx="831" cy="111" fill="cyan" r="0.75"/>
<line stroke="cyan" x1="831" x2="831" y1="109.12" y2="112.88"/>
<line stroke="cyan" x1="829.12" x2="832.88" y1="111" y2="111"/>
<circle cx="605" cy="28" fill="gold" r="0.75"/>
<line stroke="gold" x1="605" x2="605" y1="26.12" y2="29.88"/>
<line stroke="gold" x1="603.12" x2="606.88" y1="28" y2="28"/>
<circle cx="415" cy="107" fill="gold" r="0.75"/>
<line stroke="gold" x1="415" x2="415" y1="105.12" y2="108.88"/>
<line stroke="gold" x1="413.12" x2="416.88" y1="107" y2="107"/>
<circle cx="343" cy="179" fill="gold" r="0.75"/>
<line stroke="gold" x1="343" x2="343" y1="177.12" y2="180.88"/>
<line stroke="gold" x1="341.12" x2="344.88" y1="179" y2="179"/>
<circle cx="581" cy="93" fill="cyan" r="0.75"/>
<line stroke="cyan" x1="581" x2="581" y1="91.12" y2="94.88"/>
<line stroke="cyan" x1="579.12" x2="582.88" y1="93" y2="93"/>
<circle cx="991" cy="6" fill="red" r="0.75"/>
<line stroke="red" x1="991" x2="991" y1="4.12" y2="7.88"/>
<line stroke="red" x1="989.12" x2="992.88" y1="6" y2="6"/>
<circle cx="566" cy="91" fill="brown" r="0.75"/>
<line stroke="brown" x1="566" x2="566" y1="89.12" y2="92.88"/>
<line stroke="brown" x1="564.12" x2="567.88" y1="91" y2="91"/>
<circle cx="134" cy="190" fill="gold" r="0.75"/>
<line stroke="gold" x1="134" x2="134" y1="188.12" y2="191.88"/>
<line stroke="gold" x1="132.12" x2="135.88" y1="190" y2="190"/>
<circle cx="633" cy="98" fill="gold" r="0.75"/>
<line stroke="gold" x1="633" x2="633" y1="96.12" y2="99.88"/>
<line stroke="gold" x1="631.12" x2="634.88" y1="98" y2="98"/>
<circle cx="480" cy="140" fill="red" r="0.75"/>
<line stroke="red" x1="480" x2="480" y1="138.12" y2="141.88"/>
<line stroke="red" x1="478.12" x2="481.88" y1="140" y2="140"/>
<circle cx="6" cy="188" fill="brown" r="0.75"/>
<line stroke="brown" x1="6" x2="6" y1="186.12" y2="189.88"/>
<line stroke="brown" x1="4.12" x2="7.88" y1="188" y2="188"/>
<circle cx="931" cy="17" fill="gold" r="0.75"/>
<line stroke="gold" x1="931" x2="931" y1="15.12" y2="18.88"/>
<line stroke="gold" x1="929.12" x2="932.88" y1="17" y2="17"/>
<circle cx="552" cy="42" fill="gold" r="0.75"/>
<line stroke="gold" x1="552" x2="552" y1="40.12" y2="43.88"/>
<line stroke="gold" x1="550.12" x2="553.88" y1="42" y2="42"/>
<circle cx="969" cy="179" fill="cyan" r="0.75"/>
<line stroke="cyan" x1="969" x2="969" y1="177.12" y2="180.88"/>
<line stroke="cyan" x1="967.12" x2="970.88" y1="179" y2="179"/>
<circle cx="170" cy="64" fill="cyan" r="0.75"/>
<line stroke="cyan" x1="170" x2="170" y1="62.12" y2="65.88"/>
<line stroke="cyan" x1="168.12" x2="171.88" y1="64" y2="64"/>
<circle cx="711" cy="149" fill="gold" r="0.75"/>
<line stroke="gold" x1="711" x2="711" y1="147.12" y2="150.88"/>
<line stroke="gold" x1="709.12" x2="712.88" y1="149" y2="149"/>
<circle cx="121" cy="39" fill="cyan" r="0.75"/>
<line stroke="cyan" x1="121" x2="121" y1="37.12" y2="40.88"/>
<line stroke="cyan" x1="119.12" x2="122.88" y1="39" y2="39"/>
<circle cx="355" cy="28" fill="gold" r="0.75"/>
<line stroke="gold" x1="355" x2="355" y1="26.12" y2="29.88"/>
<line stroke="gold" x1="353.12" x2="356.88" y1="28" y2="28"/>
<circle cx="289" cy="118" fill="gold" r="0.75"/>
<line stroke="gold" x1="289" x2="289" y1="116.12" y2="119.88"/>
<line stroke="gold" x1="287.12" x2="290.88" y1="118" y2="118"/>
<circle cx="827" cy="180" fill="cyan" r="0.75"/>
<line stroke="cyan" x1="827" x2="827" y1="178.12" y2="181.88"/>
<line stroke="cyan" x1="825.12" x2="828.88" y1="180" y2="180"/>
</g>
<g transform="translate(512, 96) rotate(15)">
<circle cx="57.28" cy="-57.28" fill="url(#MoonGradient)" r="22.5"/>
<ellipse fill-opacity="0" rx="90" ry="29.7" stroke="url(#BottomRingGradient)" stroke-width="15"/>
<circle fill="url(#PlanetGradient)" r="72"/>
<text dx="0" dy="12.0" fill="black" stroke="black" stroke-width="1.5">LuaX</text>
<text dx="-3.0" dy="9.0" fill="white">LuaX</text>
<ellipse fill-opacity="0" rx="90" ry="29.7" stroke="url(#TopRingGradient)" stroke-width="15"/>
</g>
</svg>
