<svg font-family="Liberation Sans Bold" font-size="64" height="256" text-anchor="middle" version="1.1" width="256" xmlns="http://www.w3.org/2000/svg">
<!--
This file is part of luax.

luax is free software: you can redistribute it and/or modify
it under the terms of the GNU General Public License as published by
the Free Software Foundation, either version 3 of the License, or
(at your option) any later version.

luax is distributed in the hope that it will be useful,
but WITHOUT ANY WARRANTY; without even the implied warranty of
MERCHANTABILITY or FITNESS FOR A PARTICULAR PURPOSE.  See the
GNU General Public License for more details.

You should have received a copy of the GNU General Public License
along with luax.  If not, see <https://www.gnu.org/licenses/>.

For further information about luax you can visit
http://cdelord.fr/luax
-->
        <defs>
            <linearGradient id="PlanetGradient" x1="0" x2="0" y1="0" y2="1">
                <stop offset="0%" stop-color="lightgrey"/>
                <stop offset="15%" stop-color="cyan"/>
                <stop offset="30%" stop-color="orange"/>
                <stop offset="70%" stop-color="green"/>
                <stop offset="85%" stop-color="blue"/>
                <stop offset="100%" stop-color="lightgrey"/>
            </linearGradient>
            <linearGradient id="MoonGradient" x1="0" x2="0" y1="0" y2="1">
                <stop offset="0%" stop-color="darkgrey"/>
                <stop offset="50%" stop-color="lightgrey"/>
                <stop offset="100%" stop-color="darkgrey"/>
            </linearGradient>
            <linearGradient id="TopRingGradient" x1="0" x2="0" y1="0" y2="1">
                <stop offset="0%" stop-color="black" stop-opacity="0"/>
                <stop offset="49%" stop-color="grey" stop-opacity="0"/>
                <stop offset="50%" stop-color="grey" stop-opacity="1"/>
                <stop offset="100%" stop-color="darkgrey" stop-opacity="1"/>
            </linearGradient>
            <linearGradient id="BottomRingGradient" x1="0" x2="0" y1="0" y2="1">
                <stop offset="0%" stop-color="black" stop-opacity="1"/>
                <stop offset="50%" stop-color="grey" stop-opacity="1"/>
                <stop offset="51%" stop-color="grey" stop-opacity="0"/>
                <stop offset="100%" stop-color="darkgrey" stop-opacity="0"/>
            </linearGradient>
        </defs>
    <g stroke-linecap="round" stroke-width="0.75">
<circle cx="84" cy="76" fill="brown" r="1"/>
<line stroke="brown" x1="84" x2="84" y1="73.5" y2="78.5"/>
<line stroke="brown" x1="81.5" x2="86.5" y1="76" y2="76"/>
<circle cx="88" cy="198" fill="brown" r="1"/>
<line stroke="brown" x1="88" x2="88" y1="195.5" y2="200.5"/>
<line stroke="brown" x1="85.5" x2="90.5" y1="198" y2="198"/>
<circle cx="75" cy="209" fill="cyan" r="1"/>
<line stroke="cyan" x1="75" x2="75" y1="206.5" y2="211.5"/>
<line stroke="cyan" x1="72.5" x2="77.5" y1="209" y2="209"/>
<circle cx="94" cy="221" fill="brown" r="1"/>
<line stroke="brown" x1="94" x2="94" y1="218.5" y2="223.5"/>
<line stroke="brown" x1="91.5" x2="96.5" y1="221" y2="221"/>
<circle cx="240" cy="3" fill="red" r="1"/>
<line stroke="red" x1="240" x2="240" y1="0.5" y2="5.5"/>
<line stroke="red" x1="237.5" x2="242.5" y1="3" y2="3"/>
<circle cx="43" cy="234" fill="gold" r="1"/>
<line stroke="gold" x1="43" x2="43" y1="231.5" y2="236.5"/>
<line stroke="gold" x1="40.5" x2="45.5" y1="234" y2="234"/>
<circle cx="127" cy="200" fill="cyan" r="1"/>
<line stroke="cyan" x1="127" x2="127" y1="197.5" y2="202.5"/>
<line stroke="cyan" x1="124.5" x2="129.5" y1="200" y2="200"/>
<circle cx="217" cy="48" fill="cyan" r="1"/>
<line stroke="cyan" x1="217" x2="217" y1="45.5" y2="50.5"/>
<line stroke="cyan" x1="214.5" x2="219.5" y1="48" y2="48"/>
<circle cx="221" cy="60" fill="cyan" r="1"/>
<line stroke="cyan" x1="221" x2="221" y1="57.5" y2="62.5"/>
<line stroke="cyan" x1="218.5" x2="223.5" y1="60" y2="60"/>
<circle cx="193" cy="199" fill="cyan" r="1"/>
<line stroke="cyan" x1="193" x2="193" y1="196.5" y2="201.5"/>
<line stroke="cyan" x1="190.5" x2="195.5" y1="199" y2="199"/>
<circle cx="13" cy="253" fill="brown" r="1"/>
<line stroke="brown" x1="13" x2="13" y1="250.5" y2="255.5"/>
<line stroke="brown" x1="10.5" x2="15.5" y1="253" y2="253"/>
<circle cx="206" cy="249" fill="red" r="1"/>
<line stroke="red" x1="206" x2="206" y1="246.5" y2="251.5"/>
<line stroke="red" x1="203.5" x2="208.5" y1="249" y2="249"/>
<circle cx="83" cy="23" fill="gold" r="1"/>
<line stroke="gold" x1="83" x2="83" y1="20.5" y2="25.5"/>
<line stroke="gold" x1="80.5" x2="85.5" y1="23" y2="23"/>
<circle cx="242" cy="180" fill="red" r="1"/>
<line stroke="red" x1="242" x2="242" y1="177.5" y2="182.5"/>
<line stroke="red" x1="239.5" x2="244.5" y1="180" y2="180"/>
<circle cx="20" cy="247" fill="gold" r="1"/>
<line stroke="gold" x1="20" x2="20" y1="244.5" y2="249.5"/>
<line stroke="gold" x1="17.5" x2="22.5" y1="247" y2="247"/>
<circle cx="232" cy="200" fill="red" r="1"/>
<line stroke="red" x1="232" x2="232" y1="197.5" y2="202.5"/>
<line stroke="red" x1="229.5" x2="234.5" y1="200" y2="200"/>
<circle cx="197" cy="110" fill="cyan" r="1"/>
<line stroke="cyan" x1="197" x2="197" y1="107.5" y2="112.5"/>
<line stroke="cyan" x1="194.5" x2="199.5" y1="110" y2="110"/>
<circle cx="185" cy="126" fill="cyan" r="1"/>
<line stroke="cyan" x1="185" x2="185" y1="123.5" y2="128.5"/>
<line stroke="cyan" x1="182.5" x2="187.5" y1="126" y2="126"/>
<circle cx="209" cy="237" fill="gold" r="1"/>
<line stroke="gold" x1="209" x2="209" y1="234.5" y2="239.5"/>
<line stroke="gold" x1="206.5" x2="211.5" y1="237" y2="237"/>
<circle cx="24" cy="59" fill="cyan" r="1"/>
<line stroke="cyan" x1="24" x2="24" y1="56.5" y2="61.5"/>
<line stroke="cyan" x1="21.5" x2="26.5" y1="59" y2="59"/>
<circle cx="160" cy="20" fill="gold" r="1"/>
<line stroke="gold" x1="160" x2="160" y1="17.5" y2="22.5"/>
<line stroke="gold" x1="157.5" x2="162.5" y1="20" y2="20"/>
<circle cx="99" cy="115" fill="brown" r="1"/>
<line stroke="brown" x1="99" x2="99" y1="112.5" y2="117.5"/>
<line stroke="brown" x1="96.5" x2="101.5" y1="115" y2="115"/>
<circle cx="99" cy="16" fill="red" r="1"/>
<line stroke="red" x1="99" x2="99" y1="13.5" y2="18.5"/>
<line stroke="red" x1="96.5" x2="101.5" y1="16" y2="16"/>
<circle cx="169" cy="227" fill="cyan" r="1"/>
<line stroke="cyan" x1="169" x2="169" y1="224.5" y2="229.5"/>
<line stroke="cyan" x1="166.5" x2="171.5" y1="227" y2="227"/>
<circle cx="235" cy="110" fill="gold" r="1"/>
<line stroke="gold" x1="235" x2="235" y1="107.5" y2="112.5"/>
<line stroke="gold" x1="232.5" x2="237.5" y1="110" y2="110"/>
<circle cx="165" cy="113" fill="brown" r="1"/>
<line stroke="brown" x1="165" x2="165" y1="110.5" y2="115.5"/>
<line stroke="brown" x1="162.5" x2="167.5" y1="113" y2="113"/>
<circle cx="84" cy="98" fill="red" r="1"/>
<line stroke="red" x1="84" x2="84" y1="95.5" y2="100.5"/>
<line stroke="red" x1="81.5" x2="86.5" y1="98" y2="98"/>
<circle cx="183" cy="28" fill="brown" r="1"/>
<line stroke="brown" x1="183" x2="183" y1="25.5" y2="30.5"/>
<line stroke="brown" x1="180.5" x2="185.5" y1="28" y2="28"/>
<circle cx="217" cy="220" fill="brown" r="1"/>
<line stroke="brown" x1="217" x2="217" y1="217.5" y2="222.5"/>
<line stroke="brown" x1="214.5" x2="219.5" y1="220" y2="220"/>
<circle cx="75" cy="82" fill="brown" r="1"/>
<line stroke="brown" x1="75" x2="75" y1="79.5" y2="84.5"/>
<line stroke="brown" x1="72.5" x2="77.5" y1="82" y2="82"/>
<circle cx="181" cy="182" fill="cyan" r="1"/>
<line stroke="cyan" x1="181" x2="181" y1="179.5" y2="184.5"/>
<line stroke="cyan" x1="178.5" x2="183.5" y1="182" y2="182"/>
<circle cx="49" cy="237" fill="gold" r="1"/>
<line stroke="gold" x1="49" x2="49" y1="234.5" y2="239.5"/>
<line stroke="gold" x1="46.5" x2="51.5" y1="237" y2="237"/>
<circle cx="238" cy="53" fill="gold" r="1"/>
<line stroke="gold" x1="238" x2="238" y1="50.5" y2="55.5"/>
<line stroke="gold" x1="235.5" x2="240.5" y1="53" y2="53"/>
<circle cx="39" cy="2" fill="gold" r="1"/>
<line stroke="gold" x1="39" x2="39" y1="-0.5" y2="4.5"/>
<line stroke="gold" x1="36.5" x2="41.5" y1="2" y2="2"/>
<circle cx="146" cy="137" fill="cyan" r="1"/>
<line stroke="cyan" x1="146" x2="146" y1="134.5" y2="139.5"/>
<line stroke="cyan" x1="143.5" x2="148.5" y1="137" y2="137"/>
<circle cx="90" cy="110" fill="red" r="1"/>
<line stroke="red" x1="90" x2="90" y1="107.5" y2="112.5"/>
<line stroke="red" x1="87.5" x2="92.5" y1="110" y2="110"/>
<circle cx="148" cy="130" fill="brown" r="1"/>
<line stroke="brown" x1="148" x2="148" y1="127.5" y2="132.5"/>
<line stroke="brown" x1="145.5" x2="150.5" y1="130" y2="130"/>
<circle cx="138" cy="58" fill="gold" r="1"/>
<line stroke="gold" x1="138" x2="138" y1="55.5" y2="60.5"/>
<line stroke="gold" x1="135.5" x2="140.5" y1="58" y2="58"/>
<circle cx="158" cy="52" fill="gold" r="1"/>
<line stroke="gold" x1="158" x2="158" y1="49.5" y2="54.5"/>
<line stroke="gold" x1="155.5" x2="160.5" y1="52" y2="52"/>
<circle cx="12" cy="184" fill="red" r="1"/>
<line stroke="red" x1="12" x2="12" y1="181.5" y2="186.5"/>
<line stroke="red" x1="9.5" x2="14.5" y1="184" y2="184"/>
<circle cx="11" cy="150" fill="brown" r="1"/>
<line stroke="brown" x1="11" x2="11" y1="147.5" y2="152.5"/>
<line stroke="brown" x1="8.5" x2="13.5" y1="150" y2="150"/>
<circle cx="97" cy="178" fill="gold" r="1"/>
<line stroke="gold" x1="97" x2="97" y1="175.5" y2="180.5"/>
<line stroke="gold" x1="94.5" x2="99.5" y1="178" y2="178"/>
<circle cx="225" cy="86" fill="gold" r="1"/>
<line stroke="gold" x1="225" x2="225" y1="83.5" y2="88.5"/>
<line stroke="gold" x1="222.5" x2="227.5" y1="86" y2="86"/>
<circle cx="105" cy="106" fill="cyan" r="1"/>
<line stroke="cyan" x1="105" x2="105" y1="103.5" y2="108.5"/>
<line stroke="cyan" x1="102.5" x2="107.5" y1="106" y2="106"/>
<circle cx="15" cy="76" fill="cyan" r="1"/>
<line stroke="cyan" x1="15" x2="15" y1="73.5" y2="78.5"/>
<line stroke="cyan" x1="12.5" x2="17.5" y1="76" y2="76"/>
<circle cx="77" cy="91" fill="gold" r="1"/>
<line stroke="gold" x1="77" x2="77" y1="88.5" y2="93.5"/>
<line stroke="gold" x1="74.5" x2="79.5" y1="91" y2="91"/>
<circle cx="241" cy="89" fill="cyan" r="1"/>
<line stroke="cyan" x1="241" x2="241" y1="86.5" y2="91.5"/>
<line stroke="cyan" x1="238.5" x2="243.5" y1="89" y2="89"/>
<circle cx="117" cy="32" fill="gold" r="1"/>
<line stroke="gold" x1="117" x2="117" y1="29.5" y2="34.5"/>
<line stroke="gold" x1="114.5" x2="119.5" y1="32" y2="32"/>
<circle cx="108" cy="132" fill="gold" r="1"/>
<line stroke="gold" x1="108" x2="108" y1="129.5" y2="134.5"/>
<line stroke="gold" x1="105.5" x2="110.5" y1="132" y2="132"/>
<circle cx="10" cy="218" fill="cyan" r="1"/>
<line stroke="cyan" x1="10" x2="10" y1="215.5" y2="220.5"/>
<line stroke="cyan" x1="7.5" x2="12.5" y1="218" y2="218"/>
</g>
<g transform="translate(128, 128) rotate(15)">
<circle cx="76.37" cy="-76.37" fill="url(#MoonGradient)" r="30"/>
<ellipse fill-opacity="0" rx="120" ry="39.6" stroke="url(#BottomRingGradient)" stroke-width="20"/>
<circle fill="url(#PlanetGradient)" r="96"/>
<text dx="0" dy="16.0" fill="black" stroke="black" stroke-width="2">LuaX</text>
<text dx="-4.0" dy="12.0" fill="white">LuaX</text>
<ellipse fill-opacity="0" rx="120" ry="39.6" stroke="url(#TopRingGradient)" stroke-width="20"/>
</g>
</svg>
