<svg font-family="Liberation Sans Bold" font-size="64" height="256" text-anchor="middle" version="1.1" width="256" xmlns="http://www.w3.org/2000/svg">
<!--
This file is part of luax.

luax is free software: you can redistribute it and/or modify
it under the terms of the GNU General Public License as published by
the Free Software Foundation, either version 3 of the License, or
(at your option) any later version.

luax is distributed in the hope that it will be useful,
but WITHOUT ANY WARRANTY; without even the implied warranty of
MERCHANTABILITY or FITNESS FOR A PARTICULAR PURPOSE.  See the
GNU General Public License for more details.

You should have received a copy of the GNU General Public License
along with luax.  If not, see <https://www.gnu.org/licenses/>.

For further information about luax you can visit
http://cdelord.fr/luax
-->
        <defs>
            <linearGradient id="PlanetGradient" x1="0" x2="0" y1="0" y2="1">
                <stop offset="0%" stop-color="lightgrey"/>
                <stop offset="15%" stop-color="cyan"/>
                <stop offset="30%" stop-color="orange"/>
                <stop offset="70%" stop-color="green"/>
                <stop offset="85%" stop-color="blue"/>
                <stop offset="100%" stop-color="lightgrey"/>
            </linearGradient>
            <linearGradient id="MoonGradient" x1="0" x2="0" y1="0" y2="1">
                <stop offset="0%" stop-color="darkgrey"/>
                <stop offset="50%" stop-color="lightgrey"/>
                <stop offset="100%" stop-color="darkgrey"/>
            </linearGradient>
            <linearGradient id="TopRingGradient" x1="0" x2="0" y1="0" y2="1">
                <stop offset="0%" stop-color="black" stop-opacity="0"/>
                <stop offset="49%" stop-color="grey" stop-opacity="0"/>
                <stop offset="50%" stop-color="grey" stop-opacity="1"/>
                <stop offset="100%" stop-color="darkgrey" stop-opacity="1"/>
            </linearGradient>
            <linearGradient id="BottomRingGradient" x1="0" x2="0" y1="0" y2="1">
                <stop offset="0%" stop-color="black" stop-opacity="1"/>
                <stop offset="50%" stop-color="grey" stop-opacity="1"/>
                <stop offset="51%" stop-color="grey" stop-opacity="0"/>
                <stop offset="100%" stop-color="darkgrey" stop-opacity="0"/>
            </linearGradient>
        </defs>
    <g stroke-linecap="round" stroke-width="0.75">
<circle cx="253" cy="120" fill="brown" r="1"/>
<line stroke="brown" x1="253" x2="253" y1="118" y2="122"/>
<line stroke="brown" x1="251" x2="255" y1="120" y2="120"/>
<circle cx="134" cy="18" fill="brown" r="1"/>
<line stroke="brown" x1="134" x2="134" y1="16" y2="20"/>
<line stroke="brown" x1="132" x2="136" y1="18" y2="18"/>
<circle cx="146" cy="102" fill="cyan" r="1"/>
<line stroke="cyan" x1="146" x2="146" y1="100" y2="104"/>
<line stroke="cyan" x1="144" x2="148" y1="102" y2="102"/>
<circle cx="191" cy="37" fill="brown" r="1"/>
<line stroke="brown" x1="191" x2="191" y1="35" y2="39"/>
<line stroke="brown" x1="189" x2="193" y1="37" y2="37"/>
<circle cx="19" cy="85" fill="red" r="1"/>
<line stroke="red" x1="19" x2="19" y1="83" y2="87"/>
<line stroke="red" x1="17" x2="21" y1="85" y2="85"/>
<circle cx="174" cy="209" fill="gold" r="1"/>
<line stroke="gold" x1="174" x2="174" y1="207" y2="211"/>
<line stroke="gold" x1="172" x2="176" y1="209" y2="209"/>
<circle cx="194" cy="194" fill="cyan" r="1"/>
<line stroke="cyan" x1="194" x2="194" y1="192" y2="196"/>
<line stroke="cyan" x1="192" x2="196" y1="194" y2="194"/>
<circle cx="157" cy="53" fill="cyan" r="1"/>
<line stroke="cyan" x1="157" x2="157" y1="51" y2="55"/>
<line stroke="cyan" x1="155" x2="159" y1="53" y2="53"/>
<circle cx="46" cy="64" fill="cyan" r="1"/>
<line stroke="cyan" x1="46" x2="46" y1="62" y2="66"/>
<line stroke="cyan" x1="44" x2="48" y1="64" y2="64"/>
<circle cx="250" cy="99" fill="cyan" r="1"/>
<line stroke="cyan" x1="250" x2="250" y1="97" y2="101"/>
<line stroke="cyan" x1="248" x2="252" y1="99" y2="99"/>
<circle cx="93" cy="33" fill="brown" r="1"/>
<line stroke="brown" x1="93" x2="93" y1="31" y2="35"/>
<line stroke="brown" x1="91" x2="95" y1="33" y2="33"/>
<circle cx="109" cy="209" fill="red" r="1"/>
<line stroke="red" x1="109" x2="109" y1="207" y2="211"/>
<line stroke="red" x1="107" x2="111" y1="209" y2="209"/>
<circle cx="52" cy="221" fill="gold" r="1"/>
<line stroke="gold" x1="52" x2="52" y1="219" y2="223"/>
<line stroke="gold" x1="50" x2="54" y1="221" y2="221"/>
<circle cx="127" cy="71" fill="red" r="1"/>
<line stroke="red" x1="127" x2="127" y1="69" y2="73"/>
<line stroke="red" x1="125" x2="129" y1="71" y2="71"/>
<circle cx="139" cy="251" fill="gold" r="1"/>
<line stroke="gold" x1="139" x2="139" y1="249" y2="253"/>
<line stroke="gold" x1="137" x2="141" y1="251" y2="251"/>
<circle cx="148" cy="34" fill="red" r="1"/>
<line stroke="red" x1="148" x2="148" y1="32" y2="36"/>
<line stroke="red" x1="146" x2="150" y1="34" y2="34"/>
<circle cx="166" cy="182" fill="cyan" r="1"/>
<line stroke="cyan" x1="166" x2="166" y1="180" y2="184"/>
<line stroke="cyan" x1="164" x2="168" y1="182" y2="182"/>
<circle cx="100" cy="21" fill="cyan" r="1"/>
<line stroke="cyan" x1="100" x2="100" y1="19" y2="23"/>
<line stroke="cyan" x1="98" x2="102" y1="21" y2="21"/>
<circle cx="216" cy="141" fill="gold" r="1"/>
<line stroke="gold" x1="216" x2="216" y1="139" y2="143"/>
<line stroke="gold" x1="214" x2="218" y1="141" y2="141"/>
<circle cx="34" cy="172" fill="cyan" r="1"/>
<line stroke="cyan" x1="34" x2="34" y1="170" y2="174"/>
<line stroke="cyan" x1="32" x2="36" y1="172" y2="172"/>
<circle cx="171" cy="46" fill="gold" r="1"/>
<line stroke="gold" x1="171" x2="171" y1="44" y2="48"/>
<line stroke="gold" x1="169" x2="173" y1="46" y2="46"/>
<circle cx="100" cy="164" fill="brown" r="1"/>
<line stroke="brown" x1="100" x2="100" y1="162" y2="166"/>
<line stroke="brown" x1="98" x2="102" y1="164" y2="164"/>
<circle cx="21" cy="92" fill="red" r="1"/>
<line stroke="red" x1="21" x2="21" y1="90" y2="94"/>
<line stroke="red" x1="19" x2="23" y1="92" y2="92"/>
<circle cx="239" cy="129" fill="cyan" r="1"/>
<line stroke="cyan" x1="239" x2="239" y1="127" y2="131"/>
<line stroke="cyan" x1="237" x2="241" y1="129" y2="129"/>
<circle cx="127" cy="45" fill="gold" r="1"/>
<line stroke="gold" x1="127" x2="127" y1="43" y2="47"/>
<line stroke="gold" x1="125" x2="129" y1="45" y2="45"/>
<circle cx="24" cy="234" fill="brown" r="1"/>
<line stroke="brown" x1="24" x2="24" y1="232" y2="236"/>
<line stroke="brown" x1="22" x2="26" y1="234" y2="234"/>
<circle cx="140" cy="243" fill="red" r="1"/>
<line stroke="red" x1="140" x2="140" y1="241" y2="245"/>
<line stroke="red" x1="138" x2="142" y1="243" y2="243"/>
<circle cx="211" cy="253" fill="brown" r="1"/>
<line stroke="brown" x1="211" x2="211" y1="251" y2="255"/>
<line stroke="brown" x1="209" x2="213" y1="253" y2="253"/>
<circle cx="138" cy="176" fill="brown" r="1"/>
<line stroke="brown" x1="138" x2="138" y1="174" y2="178"/>
<line stroke="brown" x1="136" x2="140" y1="176" y2="176"/>
<circle cx="44" cy="244" fill="brown" r="1"/>
<line stroke="brown" x1="44" x2="44" y1="242" y2="246"/>
<line stroke="brown" x1="42" x2="46" y1="244" y2="244"/>
</g>
<g transform="translate(128, 128) rotate(15)">
<circle cx="76.37" cy="-76.37" fill="url(#MoonGradient)" r="30"/>
<ellipse fill-opacity="0" rx="120" ry="39.6" stroke="url(#BottomRingGradient)" stroke-width="20"/>
<circle fill="url(#PlanetGradient)" r="96"/>
<text dx="0" dy="16.0" fill="black" stroke="black" stroke-width="2">LuaX</text>
<text dx="-4.0" dy="12.0" fill="white">LuaX</text>
<ellipse fill-opacity="0" rx="120" ry="39.6" stroke="url(#TopRingGradient)" stroke-width="20"/>
</g>
</svg>
