<svg font-family="Liberation Sans Bold" font-size="64" height="256" text-anchor="middle" version="1.1" width="256" xmlns="http://www.w3.org/2000/svg">
<!--
This file is part of luax.

luax is free software: you can redistribute it and/or modify
it under the terms of the GNU General Public License as published by
the Free Software Foundation, either version 3 of the License, or
(at your option) any later version.

luax is distributed in the hope that it will be useful,
but WITHOUT ANY WARRANTY; without even the implied warranty of
MERCHANTABILITY or FITNESS FOR A PARTICULAR PURPOSE.  See the
GNU General Public License for more details.

You should have received a copy of the GNU General Public License
along with luax.  If not, see <https://www.gnu.org/licenses/>.

For further information about luax you can visit
http://cdelord.fr/luax
-->
        <defs>
            <linearGradient id="PlanetGradient" x1="0" x2="0" y1="0" y2="1">
                <stop offset="0%" stop-color="lightgrey"/>
                <stop offset="15%" stop-color="cyan"/>
                <stop offset="30%" stop-color="orange"/>
                <stop offset="70%" stop-color="green"/>
                <stop offset="85%" stop-color="blue"/>
                <stop offset="100%" stop-color="lightgrey"/>
            </linearGradient>
            <linearGradient id="MoonGradient" x1="0" x2="0" y1="0" y2="1">
                <stop offset="0%" stop-color="darkgrey"/>
                <stop offset="50%" stop-color="lightgrey"/>
                <stop offset="100%" stop-color="darkgrey"/>
            </linearGradient>
            <linearGradient id="TopRingGradient" x1="0" x2="0" y1="0" y2="1">
                <stop offset="0%" stop-color="black" stop-opacity="0"/>
                <stop offset="49%" stop-color="grey" stop-opacity="0"/>
                <stop offset="50%" stop-color="grey" stop-opacity="1"/>
                <stop offset="100%" stop-color="darkgrey" stop-opacity="1"/>
            </linearGradient>
            <linearGradient id="BottomRingGradient" x1="0" x2="0" y1="0" y2="1">
                <stop offset="0%" stop-color="black" stop-opacity="1"/>
                <stop offset="50%" stop-color="grey" stop-opacity="1"/>
                <stop offset="51%" stop-color="grey" stop-opacity="0"/>
                <stop offset="100%" stop-color="darkgrey" stop-opacity="0"/>
            </linearGradient>
        </defs>
    <g stroke-linecap="round" stroke-width="0.75">
<circle cx="176" cy="152" fill="gold" r="1"/>
<line stroke="gold" x1="176" x2="176" y1="150" y2="154"/>
<line stroke="gold" x1="174" x2="178" y1="152" y2="152"/>
<circle cx="87" cy="60" fill="cyan" r="1"/>
<line stroke="cyan" x1="87" x2="87" y1="58" y2="62"/>
<line stroke="cyan" x1="85" x2="89" y1="60" y2="60"/>
<circle cx="136" cy="190" fill="brown" r="1"/>
<line stroke="brown" x1="136" x2="136" y1="188" y2="192"/>
<line stroke="brown" x1="134" x2="138" y1="190" y2="190"/>
<circle cx="154" cy="59" fill="red" r="1"/>
<line stroke="red" x1="154" x2="154" y1="57" y2="61"/>
<line stroke="red" x1="152" x2="156" y1="59" y2="59"/>
<circle cx="157" cy="5" fill="cyan" r="1"/>
<line stroke="cyan" x1="157" x2="157" y1="3" y2="7"/>
<line stroke="cyan" x1="155" x2="159" y1="5" y2="5"/>
<circle cx="246" cy="111" fill="gold" r="1"/>
<line stroke="gold" x1="246" x2="246" y1="109" y2="113"/>
<line stroke="gold" x1="244" x2="248" y1="111" y2="111"/>
<circle cx="76" cy="52" fill="cyan" r="1"/>
<line stroke="cyan" x1="76" x2="76" y1="50" y2="54"/>
<line stroke="cyan" x1="74" x2="78" y1="52" y2="52"/>
<circle cx="110" cy="102" fill="red" r="1"/>
<line stroke="red" x1="110" x2="110" y1="100" y2="104"/>
<line stroke="red" x1="108" x2="112" y1="102" y2="102"/>
<circle cx="216" cy="91" fill="cyan" r="1"/>
<line stroke="cyan" x1="216" x2="216" y1="89" y2="93"/>
<line stroke="cyan" x1="214" x2="218" y1="91" y2="91"/>
<circle cx="160" cy="46" fill="brown" r="1"/>
<line stroke="brown" x1="160" x2="160" y1="44" y2="48"/>
<line stroke="brown" x1="158" x2="162" y1="46" y2="46"/>
<circle cx="25" cy="81" fill="red" r="1"/>
<line stroke="red" x1="25" x2="25" y1="79" y2="83"/>
<line stroke="red" x1="23" x2="27" y1="81" y2="81"/>
<circle cx="175" cy="46" fill="cyan" r="1"/>
<line stroke="cyan" x1="175" x2="175" y1="44" y2="48"/>
<line stroke="cyan" x1="173" x2="177" y1="46" y2="46"/>
<circle cx="102" cy="139" fill="red" r="1"/>
<line stroke="red" x1="102" x2="102" y1="137" y2="141"/>
<line stroke="red" x1="100" x2="104" y1="139" y2="139"/>
<circle cx="94" cy="39" fill="red" r="1"/>
<line stroke="red" x1="94" x2="94" y1="37" y2="41"/>
<line stroke="red" x1="92" x2="96" y1="39" y2="39"/>
<circle cx="67" cy="169" fill="cyan" r="1"/>
<line stroke="cyan" x1="67" x2="67" y1="167" y2="171"/>
<line stroke="cyan" x1="65" x2="69" y1="169" y2="169"/>
<circle cx="245" cy="157" fill="red" r="1"/>
<line stroke="red" x1="245" x2="245" y1="155" y2="159"/>
<line stroke="red" x1="243" x2="247" y1="157" y2="157"/>
<circle cx="123" cy="203" fill="red" r="1"/>
<line stroke="red" x1="123" x2="123" y1="201" y2="205"/>
<line stroke="red" x1="121" x2="125" y1="203" y2="203"/>
<circle cx="22" cy="66" fill="brown" r="1"/>
<line stroke="brown" x1="22" x2="22" y1="64" y2="68"/>
<line stroke="brown" x1="20" x2="24" y1="66" y2="66"/>
<circle cx="142" cy="34" fill="brown" r="1"/>
<line stroke="brown" x1="142" x2="142" y1="32" y2="36"/>
<line stroke="brown" x1="140" x2="144" y1="34" y2="34"/>
<circle cx="220" cy="118" fill="red" r="1"/>
<line stroke="red" x1="220" x2="220" y1="116" y2="120"/>
<line stroke="red" x1="218" x2="222" y1="118" y2="118"/>
<circle cx="150" cy="121" fill="gold" r="1"/>
<line stroke="gold" x1="150" x2="150" y1="119" y2="123"/>
<line stroke="gold" x1="148" x2="152" y1="121" y2="121"/>
<circle cx="119" cy="65" fill="gold" r="1"/>
<line stroke="gold" x1="119" x2="119" y1="63" y2="67"/>
<line stroke="gold" x1="117" x2="121" y1="65" y2="65"/>
<circle cx="82" cy="154" fill="brown" r="1"/>
<line stroke="brown" x1="82" x2="82" y1="152" y2="156"/>
<line stroke="brown" x1="80" x2="84" y1="154" y2="154"/>
<circle cx="5" cy="19" fill="brown" r="1"/>
<line stroke="brown" x1="5" x2="5" y1="17" y2="21"/>
<line stroke="brown" x1="3" x2="7" y1="19" y2="19"/>
<circle cx="252" cy="57" fill="cyan" r="1"/>
<line stroke="cyan" x1="252" x2="252" y1="55" y2="59"/>
<line stroke="cyan" x1="250" x2="254" y1="57" y2="57"/>
<circle cx="246" cy="62" fill="red" r="1"/>
<line stroke="red" x1="246" x2="246" y1="60" y2="64"/>
<line stroke="red" x1="244" x2="248" y1="62" y2="62"/>
<circle cx="108" cy="47" fill="red" r="1"/>
<line stroke="red" x1="108" x2="108" y1="45" y2="49"/>
<line stroke="red" x1="106" x2="110" y1="47" y2="47"/>
<circle cx="226" cy="133" fill="brown" r="1"/>
<line stroke="brown" x1="226" x2="226" y1="131" y2="135"/>
<line stroke="brown" x1="224" x2="228" y1="133" y2="133"/>
<circle cx="121" cy="25" fill="cyan" r="1"/>
<line stroke="cyan" x1="121" x2="121" y1="23" y2="27"/>
<line stroke="cyan" x1="119" x2="123" y1="25" y2="25"/>
<circle cx="75" cy="78" fill="red" r="1"/>
<line stroke="red" x1="75" x2="75" y1="76" y2="80"/>
<line stroke="red" x1="73" x2="77" y1="78" y2="78"/>
</g>
<g transform="translate(128, 128) rotate(15)">
<circle cx="76.37" cy="-76.37" fill="url(#MoonGradient)" r="30"/>
<ellipse fill-opacity="0" rx="120" ry="39.6" stroke="url(#BottomRingGradient)" stroke-width="20"/>
<circle fill="url(#PlanetGradient)" r="96"/>
<text dx="0" dy="16.0" fill="black" stroke="black" stroke-width="2">LuaX</text>
<text dx="-4.0" dy="12.0" fill="white">LuaX</text>
<ellipse fill-opacity="0" rx="120" ry="39.6" stroke="url(#TopRingGradient)" stroke-width="20"/>
</g>
</svg>
